<svg width="389" height="333" viewBox="0 0 389 333" fill="none" xmlns="http://www.w3.org/2000/svg">
<g clip-path="url(#clip0_154_5755)">
<rect width="389" height="333" rx="12" fill="#0E5D37"/>
<path d="M-11.3983 5.8819C-24.7454 22.3672 -31.2745 43.3368 -29.6453 64.4852C-28.016 85.6335 -18.3518 105.356 -2.63721 119.602C13.0774 133.848 33.65 141.538 54.8563 141.091C76.0626 140.645 96.2933 132.097 111.395 117.202C126.496 102.307 135.321 82.1953 136.059 60.9971C136.797 39.7989 129.391 19.1226 115.362 3.21357C101.333 -12.6954 81.7461 -22.6298 60.6222 -24.5497C39.4982 -26.4696 18.4408 -20.2293 1.77359 -7.11018L26.6768 24.5281C35.2587 17.7731 46.1011 14.5601 56.9778 15.5486C67.8544 16.5372 77.9399 21.6523 85.1633 29.8438C92.3868 38.0353 96.2 48.6815 95.8201 59.5964C95.4402 70.5112 90.8959 80.8665 83.1203 88.5359C75.3447 96.2053 64.928 100.607 54.0089 100.837C43.0898 101.066 32.4971 97.1072 24.4057 89.7718C16.3143 82.4364 11.3383 72.2816 10.4993 61.3924C9.66042 50.5031 13.0223 39.7059 19.8946 31.2177L-11.3983 5.8819Z" fill="#309665" fill-opacity="0.17"/>
<path d="M392.577 292.26C389.751 271.238 378.985 252.096 362.488 238.763C345.991 225.43 325.016 218.919 303.869 220.567C282.722 222.215 263.008 231.896 248.776 247.623C234.543 263.35 226.871 283.929 227.336 305.135C227.801 326.341 236.367 346.564 251.275 361.652C266.183 376.741 286.302 385.549 307.501 386.268C328.699 386.988 349.369 379.564 365.266 365.521C381.163 351.479 391.08 331.883 392.982 310.757L352.88 307.148C351.901 318.025 346.795 328.115 338.61 335.346C330.424 342.576 319.782 346.399 308.866 346.028C297.951 345.658 287.592 341.122 279.916 333.353C272.24 325.584 267.829 315.172 267.59 304.253C267.351 293.334 271.301 282.738 278.629 274.64C285.957 266.542 296.108 261.557 306.996 260.709C317.885 259.861 328.685 263.213 337.179 270.078C345.673 276.943 351.217 286.799 352.672 297.624L392.577 292.26Z" fill="#309665" fill-opacity="0.17"/>
</g>
<defs>
<clipPath id="clip0_154_5755">
<rect width="389" height="333" rx="12" fill="white"/>
</clipPath>
</defs>
</svg>
