<svg width="22" height="22" viewBox="0 0 22 22" fill="none" xmlns="http://www.w3.org/2000/svg">
<path d="M11.8945 1.53073L18.2237 4.94323C18.9626 5.34184 18.9626 6.47934 18.2237 6.87795L11.8945 10.2905C11.3306 10.5918 10.6695 10.5918 10.1056 10.2905L3.77646 6.87795C3.03757 6.47934 3.03757 5.34184 3.77646 4.94323L10.1056 1.53073C10.6695 1.22934 11.3306 1.22934 11.8945 1.53073Z" stroke="#0E5D37" stroke-width="0.675" stroke-linecap="round" stroke-linejoin="round"/>
<path d="M2.84311 9.18202L8.72505 12.1278C9.45422 12.4973 9.92089 13.2459 9.92089 14.0626V19.6237C9.92089 20.4306 9.07505 20.9459 8.35561 20.5862L2.47367 17.6403C1.7445 17.2709 1.27783 16.5223 1.27783 15.7056V10.1445C1.27783 9.33757 2.12367 8.82229 2.84311 9.18202Z" stroke="#0E5D37" stroke-width="0.675" stroke-linecap="round" stroke-linejoin="round"/>
<path d="M19.157 9.18202L13.2751 12.1278C12.5459 12.4973 12.0792 13.2459 12.0792 14.0626V19.6237C12.0792 20.4306 12.9251 20.9459 13.6445 20.5862L19.5264 17.6403C20.2556 17.2709 20.7223 16.5223 20.7223 15.7056V10.1445C20.7223 9.33757 19.8764 8.82229 19.157 9.18202Z" stroke="#0E5D37" stroke-width="0.675" stroke-linecap="round" stroke-linejoin="round"/>
</svg>
