<svg width="195" height="216" viewBox="0 0 195 216" fill="none" xmlns="http://www.w3.org/2000/svg">
<g filter="url(#filter0_f_48_9314)">
<rect x="25" y="179" width="124" height="12" fill="#1B3554"/>
</g>
<rect x="26" y="15" width="124" height="79" fill="#E0E5EC"/>
<path fill-rule="evenodd" clip-rule="evenodd" d="M26 15V135H6V62.4366L16.0016 47.0864L26 15Z" fill="#CFD4DC"/>
<path fill-rule="evenodd" clip-rule="evenodd" d="M149 15V135H169V62.4366L158.998 47.0864L149 15Z" fill="#CFD4DC"/>
<path d="M6 62H169V198C169 200.761 166.761 203 164 203H11C8.23858 203 6 200.761 6 198V62Z" fill="white"/>
<path opacity="0.5" fill-rule="evenodd" clip-rule="evenodd" d="M55 117.548C55 116.848 55.3594 116.197 55.9811 115.876C57.3648 115.161 60.0086 114 62.5778 114C65.146 114 67.7143 115.161 69.0525 115.875C69.6555 116.197 70 116.835 70 117.519C70 119.129 68.1457 120.185 66.6307 119.639C65.4137 119.201 63.9827 118.846 62.54 118.846C61.0687 118.846 59.5975 119.215 58.3503 119.665C56.8381 120.211 55 119.155 55 117.548Z" fill="#1B3554"/>
<path opacity="0.5" fill-rule="evenodd" clip-rule="evenodd" d="M106 117.548C106 116.848 106.359 116.197 106.981 115.876C108.365 115.161 111.009 114 113.578 114C116.146 114 118.714 115.161 120.053 115.875C120.656 116.197 121 116.835 121 117.519C121 119.129 119.146 120.185 117.631 119.639C116.414 119.201 114.983 118.846 113.54 118.846C112.069 118.846 110.597 119.215 109.35 119.665C107.838 120.211 106 119.155 106 117.548Z" fill="#1B3554"/>
<ellipse opacity="0.5" cx="88" cy="138.003" rx="16" ry="7.00303" fill="#1B3554"/>
<circle opacity="0.149343" cx="51" cy="77" r="6" fill="#1B3554"/>
<circle opacity="0.149343" cx="124" cy="77" r="6" fill="#1B3554"/>
<path d="M51 76.6926V39.5C51 19.3416 67.3416 3 87.5 3C107.658 3 124 19.3416 124 39.5V76.6926" stroke="#5E7085" stroke-width="5" stroke-linecap="round" stroke-linejoin="round"/>
<g filter="url(#filter1_d_48_9314)">
<circle cx="168.6" cy="175.6" r="17.6" fill="url(#paint0_linear_48_9314)"/>
</g>
<path d="M163.744 176.818C163.744 174.788 164.107 173.198 164.835 172.048C165.574 170.899 166.794 170.324 168.496 170.324C170.197 170.324 171.411 170.899 172.139 172.048C172.878 173.198 173.248 174.788 173.248 176.818C173.248 178.86 172.878 180.461 172.139 181.623C171.411 182.784 170.197 183.365 168.496 183.365C166.794 183.365 165.574 182.784 164.835 181.623C164.107 180.461 163.744 178.86 163.744 176.818ZM170.819 176.818C170.819 175.95 170.76 175.222 170.643 174.636C170.537 174.037 170.314 173.55 169.974 173.175C169.646 172.799 169.153 172.612 168.496 172.612C167.839 172.612 167.34 172.799 167 173.175C166.671 173.55 166.448 174.037 166.331 174.636C166.225 175.222 166.173 175.95 166.173 176.818C166.173 177.71 166.225 178.461 166.331 179.071C166.437 179.669 166.659 180.156 167 180.532C167.34 180.895 167.839 181.077 168.496 181.077C169.153 181.077 169.651 180.895 169.992 180.532C170.332 180.156 170.555 179.669 170.661 179.071C170.766 178.461 170.819 177.71 170.819 176.818Z" fill="white"/>
<defs>
<filter id="filter0_f_48_9314" x="0.813055" y="154.813" width="172.374" height="60.3739" filterUnits="userSpaceOnUse" color-interpolation-filters="sRGB">
<feFlood flood-opacity="0" result="BackgroundImageFix"/>
<feBlend mode="normal" in="SourceGraphic" in2="BackgroundImageFix" result="shape"/>
<feGaussianBlur stdDeviation="12.0935" result="effect1_foregroundBlur_48_9314"/>
</filter>
<filter id="filter1_d_48_9314" x="143" y="152" width="51.1992" height="51.2" filterUnits="userSpaceOnUse" color-interpolation-filters="sRGB">
<feFlood flood-opacity="0" result="BackgroundImageFix"/>
<feColorMatrix in="SourceAlpha" type="matrix" values="0 0 0 0 0 0 0 0 0 0 0 0 0 0 0 0 0 0 127 0" result="hardAlpha"/>
<feOffset dy="2"/>
<feGaussianBlur stdDeviation="4"/>
<feColorMatrix type="matrix" values="0 0 0 0 1 0 0 0 0 0.415686 0 0 0 0 0.596078 0 0 0 0.3 0"/>
<feBlend mode="normal" in2="BackgroundImageFix" result="effect1_dropShadow_48_9314"/>
<feBlend mode="normal" in="SourceGraphic" in2="effect1_dropShadow_48_9314" result="shape"/>
</filter>
<linearGradient id="paint0_linear_48_9314" x1="168.6" y1="140.4" x2="133.4" y2="175.6" gradientUnits="userSpaceOnUse">
<stop stop-color="#FF8960"/>
<stop offset="1" stop-color="#FF62A5"/>
</linearGradient>
</defs>
</svg>
