<svg width="64" height="48" viewBox="0 0 64 48" fill="none" xmlns="http://www.w3.org/2000/svg">
<path d="M35.6729 10.9893L35.4982 10.7337C34.4634 9.1433 33.4297 7.56311 32.3972 5.99316C32.2704 5.7989 32.1128 5.62169 31.9689 5.43425C31.7187 5.09345 31.7222 4.91963 32.0751 4.70493C32.9111 4.19713 33.7541 3.68253 34.6278 3.23949C35.899 2.58515 37.1806 1.93081 38.5957 1.63091C41.1279 1.09926 43.5812 1.19808 45.8667 2.57492C47.3141 3.45629 48.5344 4.66183 49.4303 6.0954C50.5885 7.91698 51.3074 9.98035 51.5307 12.1242C51.8942 14.858 51.4012 17.6368 50.119 20.0819C48.5394 23.0332 46.0072 24.7406 42.7932 25.4768C41.4671 25.8261 40.0725 25.8261 38.7465 25.4768C37.5429 25.0845 36.4154 24.4909 35.4125 23.7216C34.9795 23.3996 34.5728 23.044 34.1961 22.6583C33.9185 22.3857 33.9459 22.2698 34.2852 22.0892C35.3885 21.5144 36.4941 20.9464 37.602 20.3852C39.1322 19.6755 40.6014 18.8423 41.9948 17.8939C42.3644 17.6217 42.7147 17.3245 43.0433 17.0045C44.0712 15.9821 44.4139 14.7381 44.3008 13.3374C44.2548 12.6475 44.0927 11.9701 43.8211 11.3335C43.057 9.57158 41.7172 8.90701 39.8429 9.33983C38.7774 9.63077 37.7442 10.0281 36.7591 10.5258L35.6729 10.9893Z" fill="#F06D06"/>
<path d="M12.3423 17.3835C12.6541 17.3596 12.9385 17.3255 13.2229 17.3153C14.7306 17.254 16.2382 17.2062 17.7459 17.1415C19.4351 17.0733 21.1209 17.0154 22.8068 16.9132C25.4234 16.7049 27.9693 15.9649 30.2868 14.7388C32.5003 13.6244 34.707 12.5032 36.9274 11.399C37.8651 10.8757 38.8704 10.4824 39.9152 10.23C40.4737 10.1424 41.0399 10.1128 41.6045 10.1414C41.829 10.166 42.0399 10.2602 42.2076 10.4107C43.4548 11.4706 44.1333 13.5358 43.5473 15.0865C43.2458 15.8315 42.7416 16.4782 42.0911 16.9541C40.8817 17.8531 39.5777 18.6187 38.202 19.2374C35.3786 20.6006 32.562 22.0184 29.7077 23.327C28.3388 23.9624 26.9298 24.5088 25.4897 24.9629C24.1352 25.3356 22.7179 25.4261 21.3265 25.2287C18.02 24.8879 15.5323 23.1839 13.682 20.5052C13.0922 19.5314 12.6413 18.4808 12.3423 17.3835Z" fill="#0E5D37"/>
<path d="M12.0166 16.1018L1.01074 16.1836C0.794867 16.1836 0.575574 16.1836 0.359705 16.1836C0.143836 16.1836 0.102721 16.1427 0.106148 15.9484C0.13356 14.7624 0.14726 13.5628 0.164392 12.3905C0.181525 11.2556 0.205515 10.1241 0.212368 8.98245C0.212368 8.7473 0.274046 8.66211 0.534459 8.66211C4.87925 8.66211 9.22403 8.66211 13.5722 8.66211C15.45 8.66211 17.3414 8.6621 19.2088 8.70982C20.3156 8.73708 21.4258 8.82569 22.5291 8.92452C23.6813 9.06565 24.7381 9.63254 25.4896 10.5127C26.5465 11.6218 27.4562 12.8611 28.1965 14.2001C28.4535 14.6602 28.4398 14.6772 27.9532 14.8817C27.0262 15.3261 26.0394 15.6349 25.0236 15.7985C24.1019 15.8973 23.1698 15.9689 22.2413 15.9859C18.8388 16.0438 15.4328 16.0745 12.0269 16.1188L12.0166 16.1018Z" fill="#0E5D37"/>
<path d="M21.9808 0.00588095C23.6689 0.0439218 25.309 0.572282 26.699 1.52586C28.4294 2.67774 29.9526 4.11092 31.2049 5.76543C32.5159 7.4263 33.6742 9.20107 34.6656 11.0683C34.8335 11.3818 34.8404 11.4091 34.5183 11.5795C32.877 12.4622 31.2289 13.3346 29.5841 14.2173C29.5294 14.2527 29.4629 14.2653 29.3989 14.2526C29.3348 14.2399 29.2784 14.2027 29.2415 14.1491C29.0788 13.9457 28.9267 13.7341 28.7858 13.5152C27.8747 12.0225 26.7401 10.6768 25.4209 9.52447C24.4945 8.74065 23.3633 8.2348 22.1589 8.06584C20.5391 7.84337 18.9043 7.74652 17.2693 7.77616C15.9536 7.75912 14.6344 7.71821 13.3152 7.68413C13.137 7.68413 12.9554 7.64665 12.7772 7.62961C12.599 7.61257 12.5134 7.53078 12.6025 7.34674C12.6519 7.21181 12.7091 7.07982 12.7738 6.95141C13.8559 4.87054 15.3904 3.05556 17.2659 1.63832C18.4731 0.725616 19.9102 0.161921 21.4188 0.00929229C21.6059 -0.00182869 21.7935 -0.00296965 21.9808 0.00588095Z" fill="#0E5D37"/>
<path d="M63.8389 8.56348V16.1395H52.4082C52.4082 13.6584 52.439 11.1706 51.6338 8.72024C55.749 8.47487 59.7854 8.60437 63.8389 8.56348Z" fill="#F06D06"/>
<path d="M7.86722 46.3174V47.8817H0V37.9678H2.36086V46.3174H7.86722Z" fill="#0E5D37"/>
<path d="M17.05 46.055V47.6193H8.91895V37.9678H16.8307L16.7964 39.5321H11.016V41.8802L16.5223 41.8495V43.4479H11.016V46.055H17.05Z" fill="#0E5D37"/>
<path d="M25.7051 46.3719V47.8817H17.8345V37.9678H19.9349L19.8767 46.3174L25.7051 46.3719Z" fill="#0E5D37"/>
<path d="M34.3609 46.3719V47.8817H26.4902V37.9678H28.5907L28.5324 46.3174L34.3609 46.3719Z" fill="#0E5D37"/>
<path d="M55.3443 46.3719V47.8817H47.4736V37.9678H49.5741L49.5158 46.3174L55.3443 46.3719Z" fill="#0E5D37"/>
<path d="M64 46.3719V47.8817H56.1328V37.9678H58.2298L58.1716 46.3174L64 46.3719Z" fill="#0E5D37"/>
<path d="M41.9571 37.9678H39.7538L34.8745 47.8817H36.9304L38.1057 45.2712H43.5058L44.7736 47.8817H46.7336L41.9571 37.9678ZM39.0171 43.9693L40.7852 40.1387L42.6012 43.9693H39.0171Z" fill="#0E5D37"/>
<path d="M15.81 35.0977L13.6102 37.1834H11.7256L13.689 35.0977H15.81Z" fill="#F06D06"/>
</svg>
