<svg width="103" height="85" viewBox="0 0 103 85" fill="none" xmlns="http://www.w3.org/2000/svg">
<path d="M88.774 10.253C87.6731 6.26718 83.5496 3.92846 79.5637 5.02934L14.611 22.9691C10.6252 24.07 8.28651 28.1935 9.38738 32.1794C10.4883 36.1652 14.6118 38.5039 18.5977 37.403L76.3334 21.4566L92.2798 79.1923C93.3807 83.1781 97.5043 85.5168 101.49 84.416C105.476 83.3151 107.815 79.1915 106.714 75.2057L88.774 10.253ZM7.92751 1.51007C0.772521 3.71551 0.77339 3.71833 0.774367 3.72149C0.774836 3.72301 0.775925 3.72653 0.776866 3.72957C0.77875 3.73565 0.781069 3.74312 0.783823 3.75197C0.789331 3.76967 0.796578 3.79286 0.805562 3.82143C0.823527 3.87857 0.84844 3.95724 0.880262 4.05641C0.943897 4.25473 1.03523 4.53527 1.15395 4.88993C1.39129 5.5989 1.73878 6.60611 2.19409 7.84637C3.10289 10.322 4.45081 13.7523 6.22102 17.608C9.69189 25.1678 15.0677 34.9931 22.3606 42.2934C29.7312 49.6714 40.2621 55.5125 53.0179 51.6188C64.9098 47.9889 76.4416 36.4425 88.0697 15.94L75.0444 8.55262C63.8928 28.215 54.831 35.409 48.6462 37.2969C43.3252 38.921 38.2962 37.0575 32.9544 31.7102C27.5349 26.2853 23.0456 18.3647 19.8296 11.36C18.2564 7.93337 17.0554 4.87674 16.2512 2.68595C15.85 1.59303 15.5499 0.722191 15.3538 0.136409C15.2558 -0.156309 15.184 -0.377316 15.1386 -0.518707C15.1159 -0.589386 15.0999 -0.640115 15.0905 -0.669904C15.0858 -0.684797 15.0828 -0.69445 15.0815 -0.698739C15.0808 -0.700883 15.0806 -0.701685 15.0807 -0.701131C15.0808 -0.700857 15.0813 -0.699413 15.0813 -0.699279C15.0818 -0.697502 15.0825 -0.69538 7.92751 1.51007Z" fill="#F9FAFC" fill-opacity="0.16"/>
</svg>
