<svg width="101" height="59" viewBox="0 0 101 59" fill="none" xmlns="http://www.w3.org/2000/svg">
<path d="M48.6799 56.9063C51.4659 58.973 55.3998 58.3899 57.4666 55.6039L91.1459 10.2031C93.2126 7.41706 92.6295 3.48313 89.8435 1.4164C87.0575 -0.650332 83.1236 -0.0672346 81.0568 2.71879L51.1196 43.0751L10.7633 13.1379C7.97733 11.0712 4.04339 11.6543 1.97666 14.4403C-0.090071 17.2263 0.493029 21.1602 3.27904 23.227L48.6799 56.9063ZM106.646 20.9393C110.237 15.7865 110.235 15.7851 110.233 15.7835C110.232 15.7828 110.229 15.781 110.227 15.7795C110.223 15.7764 110.217 15.7727 110.211 15.7683C110.198 15.7594 110.181 15.7478 110.161 15.7336C110.119 15.7051 110.062 15.6659 109.99 15.6168C109.846 15.5185 109.64 15.3802 109.379 15.207C108.856 14.8609 108.106 14.3744 107.164 13.7895C105.285 12.6221 102.623 11.0502 99.4613 9.41514C93.2628 6.20928 84.6351 2.48927 76.0437 1.42864C67.3608 0.356718 57.3822 1.93285 50.9594 11.0939C44.9716 19.6346 43.3097 33.2231 46.2089 52.7827L58.6352 50.9408C55.8548 32.1828 58.1311 22.7472 61.2453 18.3053C63.9245 14.4839 68.2117 13.1191 74.5046 13.896C80.889 14.6842 87.947 17.6027 93.6903 20.5731C96.4999 22.0262 98.8723 23.4269 100.535 24.4601C101.365 24.9755 102.013 25.3963 102.445 25.6823C102.661 25.8252 102.823 25.9342 102.926 26.0043C102.977 26.0393 103.014 26.0645 103.036 26.0794C103.046 26.0868 103.053 26.0917 103.056 26.0938C103.058 26.0949 103.059 26.0953 103.058 26.095C103.058 26.0949 103.057 26.0941 103.057 26.0941C103.056 26.0932 103.054 26.0921 106.646 20.9393Z" fill="#DCEDE5" fill-opacity="0.06"/>
</svg>
